<?xml version="1.0" encoding="iso-8859-1"?>
<!-- Generator: Adobe Illustrator 19.0.0, SVG Export Plug-In . SVG Version: 6.00 Build 0)  -->
<svg version="1.1" id="Capa_1" xmlns="http://www.w3.org/2000/svg" xmlns:xlink="http://www.w3.org/1999/xlink" x="0px" y="0px"
	 viewBox="0 0 494.592 494.592" style="enable-background:new 0 0 494.592 494.592;" xml:space="preserve">
<g>
	<g>
		<path d="M368.128,271.872h-16.384l-72.192-57.856c20.776-11.627,33.687-33.536,33.792-57.344
			c0.078-30.537-20.945-57.081-50.688-64V75.776h35.328c8.483,0,15.36-6.877,15.36-15.36V15.36c0-8.483-6.877-15.36-15.36-15.36
			H196.608c-8.483,0-15.36,6.877-15.36,15.36v45.056c0,8.483,6.877,15.36,15.36,15.36h35.328v30.208
			c-0.288,8.195,6.122,15.072,14.318,15.36c0.347,0.012,0.695,0.012,1.042,0c19.511,0,35.328,15.817,35.328,35.328
			c-0.007,19.511-15.829,35.322-35.34,35.316c-19.501-0.007-35.309-15.814-35.316-35.316h-30.72
			c0.105,23.808,13.016,45.717,33.792,57.344l-72.192,57.856h-16.384c-8.37,0.266-15.094,6.99-15.36,15.36v192
			c0,8.483,6.877,15.36,15.36,15.36h241.664c8.483,0,15.36-6.877,15.36-15.36v-192C383.222,278.861,376.498,272.138,368.128,271.872
			z M211.968,45.056V30.72h70.656v14.336H211.968z M224.768,328.192v-25.6h45.056l0,25.6H224.768z M192,271.872l55.296-44.544
			l55.296,44.544H192z"/>
	</g>
</g>
<g>
</g>
<g>
</g>
<g>
</g>
<g>
</g>
<g>
</g>
<g>
</g>
<g>
</g>
<g>
</g>
<g>
</g>
<g>
</g>
<g>
</g>
<g>
</g>
<g>
</g>
<g>
</g>
<g>
</g>
</svg>
