<svg id="Layer_1" enable-background="new 0 0 128 128" height="512" viewBox="0 0 128 128" width="512" xmlns="http://www.w3.org/2000/svg"><path d="m115.3 21.7v58.3c.1 2.1-1.5 4-3.6 4.1h-95.4c-2.1-.2-3.7-2-3.6-4.1v-58.3c-.1-2.1 1.5-4 3.6-4.1h95.4c2.1.2 3.7 2 3.6 4.1z" fill="#839afe"/><path d="m115.3 21.7v49.5h-102.6v-49.5c-.1-2.1 1.5-4 3.6-4.1h95.4c2.1.2 3.7 2 3.6 4.1z" fill="#436afd"/><path d="m77.1 102h-28l3.9-17.9h20.1z" fill="#436afd"/><path d="m40 102h47v5.4h-47z" fill="#839afe"/><path d="m21.1 25.8h85.7v15.5h-85.7z" fill="#98fcd2"/><path d="m21.1 41.3h85.7v30h-85.7z" fill="#b7c5ff"/><g fill="#2030a0"><path d="m111.7 15.9h-95.4c-3.1.2-5.5 2.8-5.3 5.9v58.2c-.1 3.1 2.2 5.7 5.3 5.9h9.4c1 0 1.8-.8 1.8-1.8s-.8-1.8-1.8-1.8h-9.4c-1.1-.2-1.9-1.2-1.8-2.4v-7h99v7c.1 1.1-.7 2.2-1.8 2.4h-65.5c-1 0-1.8.8-1.8 1.8s.8 1.8 1.8 1.8h4.7l-3.2 14.4h-7.7c-1 0-1.8.8-1.8 1.8v5.4c0 1 .8 1.8 1.8 1.8h47c1 0 1.8-.8 1.8-1.8v-5.5c0-1-.8-1.8-1.8-1.8h-8.6l-3.2-14.4h36.4c3.1-.2 5.5-2.8 5.3-5.9v-32.4c0-1-.8-1.8-1.8-1.8s-1.8.8-1.8 1.8v22.1h-4.9v-43.8c0-1-.8-1.8-1.8-1.8h-85.5c-1 0-1.8.8-1.8 1.8v43.7h-4.9v-47.7c-.1-1.2.7-2.2 1.8-2.4h95.4c1.1.2 1.9 1.2 1.8 2.4v5.2c0 1 .8 1.8 1.8 1.8s1.8-.8 1.8-1.8v-5.3c.2-3-2.2-5.7-5.3-5.8zm-26.4 89.8h-43.6v-1.9h43.5v1.9zm-10.4-5.4h-23.7l3.2-14.4h17.3zm30.2-72.8v12h-82.2v-12zm-82.2 15.6h82.3v26.5h-82.3z"/><path d="m115.3 31.1c-1 0-1.7.8-1.8 1.7v8.8c0 1 .8 1.8 1.8 1.8s1.8-.8 1.8-1.8v-8.8c-.1-.9-.9-1.7-1.8-1.7z"/><path d="m42.1 84.1c0-1-.8-1.8-1.8-1.8h-8.8c-1 0-1.8.8-1.8 1.8s.8 1.8 1.8 1.8h8.8c1 0 1.8-.8 1.8-1.8z"/><path d="m29.6 36.3c1.4 0 2.5-1.1 2.5-2.5s-1.1-2.5-2.5-2.5-2.5 1.1-2.5 2.5c0 1.4 1.1 2.5 2.5 2.5z"/><path d="m39.1 36.3c1.4 0 2.5-1.1 2.5-2.5s-1.1-2.5-2.5-2.5-2.5 1.1-2.5 2.5c0 1.4 1.1 2.5 2.5 2.5z"/><path d="m48.6 36.3c1.4 0 2.5-1.1 2.5-2.5s-1.1-2.5-2.5-2.5-2.5 1.1-2.5 2.5c0 1.4 1.1 2.5 2.5 2.5z"/><path d="m102.2 49.6h-72.6c-1 0-1.8.8-1.8 1.8s.8 1.8 1.8 1.8h72.6c1 0 1.8-.8 1.8-1.8s-.9-1.8-1.8-1.8z"/><path d="m80 59.7h-50.4c-1 0-1.8.8-1.8 1.8s.8 1.8 1.8 1.8h50.4c1 0 1.8-.8 1.8-1.8s-.8-1.8-1.8-1.8z"/></g></svg>