<?xml version="1.0" encoding="iso-8859-1"?>
<!-- Generator: Adobe Illustrator 19.0.0, SVG Export Plug-In . SVG Version: 6.00 Build 0)  -->
<svg version="1.1" id="Capa_1" xmlns="http://www.w3.org/2000/svg" xmlns:xlink="http://www.w3.org/1999/xlink" x="0px" y="0px"
	 viewBox="0 0 469.333 469.333" style="enable-background:new 0 0 469.333 469.333;" xml:space="preserve">
<path style="fill:#303C42;" d="M458.667,181.333c5.896,0,10.667-4.771,10.667-10.667S464.563,160,458.667,160h-32v-42.667h32
	c5.896,0,10.667-4.771,10.667-10.667c0-5.896-4.771-10.667-10.667-10.667h-32V85.333c0-23.531-19.135-42.667-42.667-42.667h-10.667
	v-32C373.333,4.771,368.563,0,362.667,0C356.771,0,352,4.771,352,10.667v32h-42.667v-32C309.333,4.771,304.563,0,298.667,0
	C292.771,0,288,4.771,288,10.667v32h-42.667v-32C245.333,4.771,240.563,0,234.667,0S224,4.771,224,10.667v32h-42.667v-32
	C181.333,4.771,176.563,0,170.667,0S160,4.771,160,10.667v32h-42.667v-32C117.333,4.771,112.563,0,106.667,0
	C100.771,0,96,4.771,96,10.667v32H85.333c-23.531,0-42.667,19.135-42.667,42.667V96h-32C4.771,96,0,100.771,0,106.667
	c0,5.896,4.771,10.667,10.667,10.667h32V160h-32C4.771,160,0,164.771,0,170.667s4.771,10.667,10.667,10.667h32V224h-32
	C4.771,224,0,228.771,0,234.667s4.771,10.667,10.667,10.667h32V288h-32C4.771,288,0,292.771,0,298.667
	c0,5.896,4.771,10.667,10.667,10.667h32V352h-32C4.771,352,0,356.771,0,362.667c0,5.896,4.771,10.667,10.667,10.667h32V384
	c0,23.531,19.135,42.667,42.667,42.667H96v32c0,5.896,4.771,10.667,10.667,10.667c5.896,0,10.667-4.771,10.667-10.667v-32H160v32
	c0,5.896,4.771,10.667,10.667,10.667s10.667-4.771,10.667-10.667v-32H224v32c0,5.896,4.771,10.667,10.667,10.667
	s10.667-4.771,10.667-10.667v-32H288v32c0,5.896,4.771,10.667,10.667,10.667c5.896,0,10.667-4.771,10.667-10.667v-32H352v32
	c0,5.896,4.771,10.667,10.667,10.667c5.896,0,10.667-4.771,10.667-10.667v-32H384c23.531,0,42.667-19.135,42.667-42.667v-10.667h32
	c5.896,0,10.667-4.771,10.667-10.667c0-5.896-4.771-10.667-10.667-10.667h-32v-42.667h32c5.896,0,10.667-4.771,10.667-10.667
	c0-5.896-4.771-10.667-10.667-10.667h-32v-42.667h32c5.896,0,10.667-4.771,10.667-10.667S464.563,224,458.667,224h-32v-42.667
	H458.667z"/>
<path style="fill:#7CB342;" d="M405.333,384c0,11.76-9.573,21.333-21.333,21.333H85.333C73.573,405.333,64,395.76,64,384V85.333
	C64,73.573,73.573,64,85.333,64H384c11.76,0,21.333,9.573,21.333,21.333V384z"/>
<path style="fill:#303C42;" d="M373.333,85.333H96c-5.896,0-10.667,4.771-10.667,10.667v277.333C85.333,379.229,90.104,384,96,384
	h277.333c5.896,0,10.667-4.771,10.667-10.667V96C384,90.104,379.229,85.333,373.333,85.333z"/>
<rect id="SVGCleanerId_0" x="106.667" y="106.667" style="fill:#F2F2F2;" width="256" height="256"/>
<g>
	<rect id="SVGCleanerId_0_1_" x="106.667" y="106.667" style="fill:#F2F2F2;" width="256" height="256"/>
</g>
<linearGradient id="SVGID_1_" gradientUnits="userSpaceOnUse" x1="-56.0352" y1="613.1464" x2="-48.328" y2="605.4461" gradientTransform="matrix(21.3333 0 0 -21.3333 1430.1112 13315.2227)">
	<stop  offset="0" style="stop-color:#000000;stop-opacity:0.1"/>
	<stop  offset="1" style="stop-color:#000000;stop-opacity:0"/>
</linearGradient>
<path style="fill:url(#SVGID_1_);" d="M381.219,88.961L381.219,88.961C382.9,90.846,384,93.272,384,96v277.333
	c0,5.896-4.771,10.667-10.667,10.667H96c-2.88,0-5.47-1.167-7.389-3.018l-0.005,0.005l24.345,24.346H384
	c11.76,0,21.333-9.573,21.333-21.333V113.076L381.219,88.961z"/>
<path style="fill:#303C42;" d="M170.667,266.673h42.667v64c0,4.74,3.125,8.917,7.688,10.24C222,341.205,223,341.34,224,341.34
	c3.583,0,7-1.802,9-4.938l74.667-117.333c2.083-3.292,2.229-7.448,0.354-10.865c-1.875-3.406-5.458-5.531-9.354-5.531H256v-64
	c0-4.74-3.125-8.917-7.688-10.24c-4.5-1.354-9.417,0.49-11.979,4.51l-74.667,117.333c-2.083,3.292-2.229,7.448-0.354,10.865
	C163.188,264.548,166.771,266.673,170.667,266.673z"/>
<path style="fill:#FFCA28;" d="M234.667,175.298v38.042c0,5.896,4.771,10.667,10.667,10.667h33.896l-44.563,70.042v-38.042
	c0-5.896-4.771-10.667-10.667-10.667h-33.896L234.667,175.298z"/>
<linearGradient id="SVGID_2_" gradientUnits="userSpaceOnUse" x1="-57.942" y1="615.086" x2="-50.0188" y2="607.1688" gradientTransform="matrix(21.3333 0 0 -21.3333 1430.1112 13315.2227)">
	<stop  offset="0" style="stop-color:#000000;stop-opacity:0.1"/>
	<stop  offset="1" style="stop-color:#000000;stop-opacity:0"/>
</linearGradient>
<path style="fill:url(#SVGID_2_);" d="M164.665,264.602l-0.061,0.09l48.729,48.729v-46.747h-42.667
	C168.438,266.673,166.428,265.836,164.665,264.602z M254.292,133.064l-0.108,0.159c1.003,1.637,1.816,3.432,1.816,5.451v64h42.667
	c3.896,0,7.479,2.125,9.354,5.531c1.875,3.417,1.729,7.573-0.354,10.865L233,336.402c-2,3.135-5.417,4.938-9,4.938
	c-1,0-2-0.135-2.979-0.427l21.755,21.754h119.891V241.439L254.292,133.064z"/>
<linearGradient id="SVGID_3_" gradientUnits="userSpaceOnUse" x1="-67.4125" y1="618.4561" x2="-44.6604" y2="607.846" gradientTransform="matrix(21.3333 0 0 -21.3333 1430.1112 13315.2227)">
	<stop  offset="0" style="stop-color:#FFFFFF;stop-opacity:0.2"/>
	<stop  offset="1" style="stop-color:#FFFFFF;stop-opacity:0"/>
</linearGradient>
<path style="fill:url(#SVGID_3_);" d="M458.667,181.333c5.896,0,10.667-4.771,10.667-10.667S464.563,160,458.667,160h-32v-42.667h32
	c5.896,0,10.667-4.771,10.667-10.667c0-5.896-4.771-10.667-10.667-10.667h-32V85.333c0-23.531-19.135-42.667-42.667-42.667h-10.667
	v-32C373.333,4.771,368.563,0,362.667,0C356.771,0,352,4.771,352,10.667v32h-42.667v-32C309.333,4.771,304.563,0,298.667,0
	C292.771,0,288,4.771,288,10.667v32h-42.667v-32C245.333,4.771,240.563,0,234.667,0S224,4.771,224,10.667v32h-42.667v-32
	C181.333,4.771,176.563,0,170.667,0S160,4.771,160,10.667v32h-42.667v-32C117.333,4.771,112.563,0,106.667,0
	C100.771,0,96,4.771,96,10.667v32H85.333c-23.531,0-42.667,19.135-42.667,42.667V96h-32C4.771,96,0,100.771,0,106.667
	c0,5.896,4.771,10.667,10.667,10.667h32V160h-32C4.771,160,0,164.771,0,170.667s4.771,10.667,10.667,10.667h32V224h-32
	C4.771,224,0,228.771,0,234.667s4.771,10.667,10.667,10.667h32V288h-32C4.771,288,0,292.771,0,298.667
	c0,5.896,4.771,10.667,10.667,10.667h32V352h-32C4.771,352,0,356.771,0,362.667c0,5.896,4.771,10.667,10.667,10.667h32V384
	c0,23.531,19.135,42.667,42.667,42.667H96v32c0,5.896,4.771,10.667,10.667,10.667c5.896,0,10.667-4.771,10.667-10.667v-32H160v32
	c0,5.896,4.771,10.667,10.667,10.667s10.667-4.771,10.667-10.667v-32H224v32c0,5.896,4.771,10.667,10.667,10.667
	s10.667-4.771,10.667-10.667v-32H288v32c0,5.896,4.771,10.667,10.667,10.667c5.896,0,10.667-4.771,10.667-10.667v-32H352v32
	c0,5.896,4.771,10.667,10.667,10.667c5.896,0,10.667-4.771,10.667-10.667v-32H384c23.531,0,42.667-19.135,42.667-42.667v-10.667h32
	c5.896,0,10.667-4.771,10.667-10.667c0-5.896-4.771-10.667-10.667-10.667h-32v-42.667h32c5.896,0,10.667-4.771,10.667-10.667
	c0-5.896-4.771-10.667-10.667-10.667h-32v-42.667h32c5.896,0,10.667-4.771,10.667-10.667S464.563,224,458.667,224h-32v-42.667
	H458.667z"/>
<g>
</g>
<g>
</g>
<g>
</g>
<g>
</g>
<g>
</g>
<g>
</g>
<g>
</g>
<g>
</g>
<g>
</g>
<g>
</g>
<g>
</g>
<g>
</g>
<g>
</g>
<g>
</g>
<g>
</g>
</svg>
